<svg id="Grupo_1683" data-name="Grupo 1683" xmlns="http://www.w3.org/2000/svg" width="122.896" height="119.399" viewBox="0 0 122.896 119.399">
  <path id="Caminho_8030" data-name="Caminho 8030" d="M1865.517,1817.766a59.447,59.447,0,1,1-62.333-56.406A59.454,59.454,0,0,1,1865.517,1817.766Z" transform="translate(-1742.695 -1760.778)" fill="#f4901e"/>
  <path id="Caminho_8031" data-name="Caminho 8031" d="M1861.77,1817.3a59.445,59.445,0,1,1-62.329-56.41A59.448,59.448,0,0,1,1861.77,1817.3Z" transform="translate(-1742.952 -1760.811)" fill="#ffc400"/>
  <path id="Caminho_8032" data-name="Caminho 8032" d="M1757.88,1823.282A45.378,45.378,0,0,1,1829.3,1783.9a45.373,45.373,0,1,0-54.5,72.5A45.222,45.222,0,0,1,1757.88,1823.282Z" transform="translate(-1742.091 -1759.913)" fill="#f4901e"/>
  <text id="_1" data-name="1" transform="translate(36.67 85.137)" fill="#0a243c" font-size="78" font-family="Foco-Black, Foco" font-weight="800" letter-spacing="0.003em"><tspan x="0" y="0">1</tspan></text>
</svg>
